/* XPM */
static char *_567965653417[] = {
/* columns rows colors chars-per-pixel */
"16 16 60 1 ",
"  c gray25",
". c #767676",
"X c #7C7C7C",
"o c gray49",
"O c gray50",
"+ c #3E962E",
"@ c #449F2E",
"# c #449A30",
"$ c #4AA431",
"% c #4FAD32",
"& c #50A436",
"* c #58AE39",
"= c #59AA3C",
"- c #55B135",
"; c #64BC3F",
": c #68B747",
"> c #72B454",
", c #7BB75D",
"< c #74C54F",
"1 c #80887B",
"2 c #848B7F",
"3 c #83C264",
"4 c #83CE60",
"5 c #90CE6E",
"6 c #87D162",
"7 c #8FD865",
"8 c #98D66C",
"9 c #95DA6A",
"0 c #8EC570",
"q c #9BD472",
"w c #92D379",
"e c #95D67A",
"r c #9CD27C",
"t c #9EDC7F",
"y c gray51",
"u c #898987",
"i c #898989",
"p c #8A8B8A",
"a c #8B8C8A",
"s c #9A9A9A",
"d c #9DA58B",
"f c #A5AD93",
"g c #AAB494",
"h c #AFB997",
"j c #A0A0A0",
"k c gray63",
"l c #B2B9A1",
"z c #B6B6B6",
"x c gray73",
"c c #A6DC84",
"v c #ACDC8C",
"b c #B6C29D",
"n c #A7E088",
"m c #CCD3BC",
"M c gray80",
"N c #CED2C3",
"B c #DFDFDF",
"V c #E1E4D9",
"C c #E4E9D8",
"Z c None",
/* pixels */
"ZZZZZZZZZZZZZZZZ",
"ZZZZZZ oyZZZZZZZ",
"ZZZZyZZjBMsZZZZZ",
"ZZZZodflVNuZZZZZ",
"ZZZZighbCmZZZZZZ",
"ZZZZZZZZZZZZZZZZ",
"ZZZZa+@%w4ZZZZZZ",
"ZZZZa#$-e6ZZZZZZ",
"ZZZZZZZZZZZZZZZZ",
"ZZZZa&*:t7ZZZZZZ",
"ZZZZa*:<n9ZZZZZZ",
"ZZZZiZZZZZZZZZZZ",
"ZZZZa>35c81ZZZZZ",
"ZZZZi,0rvq2ZZZZZ",
"ZZZZoZjzxZ.ZZZZZ",
"ZZZZZZZZZZZZZZZZ"
};
