/* XPM */
static char *_567964179858[] = {
/* columns rows colors chars-per-pixel */
"16 16 87 1 ",
"  c #8E8F91",
". c #95989B",
"X c #979A9D",
"o c #999B9C",
"O c #9A9C9E",
"+ c #9C9D9E",
"@ c #9D9E9F",
"# c #9FA0A1",
"$ c #A1A3A4",
"% c #A3A5A6",
"& c #A9AAAA",
"* c #A8AAAB",
"= c #A9AAAB",
"- c #ACACAD",
"; c #ADAEAE",
": c gray69",
"> c #B0B1B1",
", c #B1B1B2",
"< c #B2B2B2",
"1 c #B1B3B5",
"2 c #B4B4B4",
"3 c #B5B4B4",
"4 c #B7B7B6",
"5 c #B6B7B8",
"6 c #B7B8B9",
"7 c #B8B9B9",
"8 c #BCBBBB",
"9 c #BBBDBF",
"0 c #BEBEBF",
"q c #BFC0C0",
"w c #C0C0C0",
"e c #C0C0C1",
"r c #C1C2C3",
"t c #C2C2C3",
"y c #C3C4C5",
"u c #C3C5C6",
"i c #C4C4C5",
"p c #C4C5C6",
"a c #C6C7C8",
"s c #C6C8C9",
"d c #C7C9CB",
"f c #C8C8C9",
"g c #C8C9CA",
"h c #C9C9CA",
"j c #C9CACA",
"k c #CACBCB",
"l c #C8CBCC",
"z c #CBCCCE",
"x c #CCCDCE",
"c c #CDCDCE",
"v c #CECFCE",
"b c #CFCFCE",
"n c #D0D1D1",
"m c #D1D2D1",
"M c #D1D2D2",
"N c #D2D2D3",
"B c LightGray",
"V c #D2D3D4",
"C c #D2D3D5",
"Z c #D5D5D4",
"A c #D5D5D5",
"S c #D4D5D6",
"D c gray84",
"F c #D6D7D7",
"G c #D7D7D7",
"H c #D6D7D8",
"J c #D7D8D9",
"K c #D8D8D8",
"L c #DADADA",
"P c #DADADB",
"I c #DADBDB",
"U c gray86",
"Y c #DBDBDC",
"T c #DBDCDC",
"R c #DCDCDD",
"E c #DDDDDD",
"W c gray87",
"Q c #DEDFDF",
"! c #DFDFDF",
"~ c gray88",
"^ c #E4E4E3",
"/ c #E3E4E4",
"( c #E4E4E4",
") c #E5E5E4",
"_ c #E6E6E5",
"` c #E6E6E6",
"' c None",
/* pixels */
"''''''''''''''''",
"''''''''''''''''",
"''''''''''''''''",
"''''''''''''''''",
"''''''''''2>3'''",
"''''38'';'7e05=>",
"'=fY/Re-4ez~Zp63",
"ZzHC`PZYTyfZPMp'",
"qTT~)QMG`)Jdff>'",
"'xBQzexQ)RZMvq''",
"'1dRGvfJyeBZd9''",
"''' @O#=%o%@O.O'",
"''''''''''''''''",
"''''''''''''''''",
"''''''''''''''''",
"''''''''''''''''"
};
