/* XPM */
static char *_567965231425[] = {
/* columns rows colors chars-per-pixel */
"16 16 153 2 ",
"   c #066330",
".  c #046531",
"X  c #056631",
"o  c #056B33",
"O  c #057137",
"+  c #0B733B",
"@  c #0B743B",
"#  c #107237",
"$  c #107337",
"%  c #1B7538",
"&  c #1B7638",
"*  c #1B7639",
"=  c #1B7739",
"-  c #1C7739",
";  c #1B7C3D",
":  c #2C5940",
">  c #2C5B42",
",  c #2E5A42",
"<  c #2F5C44",
"1  c #266545",
"2  c #256645",
"3  c #266646",
"4  c #43574B",
"5  c #455B4F",
"6  c #485C50",
"7  c #456153",
"8  c #4B6054",
"9  c #4A6155",
"0  c #496355",
"q  c #4B6758",
"w  c #4E6558",
"e  c #4D6759",
"r  c #4D6859",
"t  c #4F685A",
"y  c #4F6A5C",
"u  c #4E6B5C",
"i  c #4F6D5D",
"p  c #506458",
"a  c #506559",
"s  c #52665A",
"d  c #51685B",
"f  c #506A5C",
"g  c #506D5E",
"h  c #516E5F",
"j  c #566B60",
"k  c #546D60",
"l  c #596F63",
"z  c #547062",
"x  c #577163",
"c  c #567465",
"v  c #557665",
"b  c #577566",
"n  c #587566",
"m  c #577968",
"M  c #7E7E7C",
"N  c #0F8441",
"B  c #118642",
"V  c #1B8140",
"C  c #1D8140",
"Z  c #1D8642",
"A  c #1B8C45",
"S  c #109047",
"D  c #119148",
"F  c #1E9048",
"G  c #1B9449",
"H  c #1B974A",
"J  c #1B9B4B",
"K  c #1D994C",
"L  c #1D9C4D",
"P  c #1D9F4E",
"I  c #05A34E",
"U  c #06A34F",
"Y  c #0BA14E",
"T  c #0BA24F",
"R  c #0BA355",
"E  c #06AC53",
"W  c #13A655",
"Q  c #11AB54",
"!  c #11AC54",
"~  c #1DA953",
"^  c #1DAA53",
"/  c #1DAB54",
"(  c #1EAA54",
")  c #A4A4A3",
"_  c #A5A5A3",
"`  c #A8A8A7",
"'  c #A9A9A8",
"]  c #ABABAA",
"[  c #ACACAB",
"{  c #B2B2B0",
"}  c #B3B3B1",
"|  c #B3B3B2",
" . c #B4B4B2",
".. c #B4B4B3",
"X. c #B5B5B3",
"o. c #B6B6B5",
"O. c #BABAB8",
"+. c #BABAB9",
"@. c gray73",
"#. c #BBBBBA",
"$. c #BBBBBB",
"%. c #BDBDBC",
"&. c #BEBEBD",
"*. c #BFBFBD",
"=. c #BFBFBE",
"-. c #C0C0BE",
";. c #C1C1BF",
":. c #C1C1C0",
">. c #C2C2C1",
",. c #C4C4C3",
"<. c #C5C5C4",
"1. c #C7C7C6",
"2. c #C8C8C6",
"3. c #C8C8C7",
"4. c #C9C9C7",
"5. c #C9C9C8",
"6. c #CACAC8",
"7. c #CACAC9",
"8. c #CBCBC9",
"9. c #CBCBCA",
"0. c #CCCCCA",
"q. c #CDCDCB",
"w. c #CDCDCC",
"e. c #CFCFCE",
"r. c #D1D1CF",
"t. c #D4D4D1",
"y. c #D4D4D2",
"u. c #D4D4D3",
"i. c #D5D5D3",
"p. c #D6D6D3",
"a. c #D6D6D4",
"s. c #D7D7D5",
"d. c #D8D8D6",
"f. c #D9D9D6",
"g. c #DADAD7",
"h. c #DADAD8",
"j. c #DBDBD8",
"k. c #DCDCDA",
"l. c #DDDDDB",
"z. c #DFDFDD",
"x. c #E0E0DD",
"c. c #E1E1DE",
"v. c #E1E1DF",
"b. c #E2E2DF",
"n. c #E2E2E0",
"m. c #E4E4E1",
"M. c #E5E5E2",
"N. c #E5E5E3",
"B. c #E6E6E4",
"V. c #E7E7E5",
"C. c #E8E8E6",
"Z. c #E9E9E7",
"A. c None",
/* pixels */
"A.A.A.A.A.A.A.A.A.A.A.A.A.A.A.A.",
"A.A.W E ^ ^ Q / Q / ^ / E W A.A.",
"A.Y R 2 u z c c m n n g 2 R Y A.",
"A.U 2 @.<.3.e.s.l.v.N.V.@.2 U A.",
"A.P 7 o.X.;.6.u.g.z.v.N.g.e J A.",
"A.P 0 @.;.q.i.6.6.q.6.n.g.f H A.",
"A.K e ,.8.6.8.n.C.C.h.&.u.f H A.",
"A.D g q.&.>.=.,.w.q.2.2.q.i S A.",
"A.F j i.=.=.;.#.&.| &.X.2.r A A.",
"A.B l g.[ v.N.V.V.i.@.i.;.r B A.",
"A.Z l x.i.` ` ` ) ] <.6. .0 V A.",
"A.C h x.N.N.N.v.h.i.6.@._ 5 ; A.",
"A.O < | d.g.i.r.6.;.| _ M : O A.",
"A.X + : s s d e e 6 6 4 : + X A.",
"A.A.  o % % $ % # - - % o   A.A.",
"A.A.A.A.A.A.A.A.A.A.A.A.A.A.A.A."
};
