/* XPM */
static char *_567965460163[] = {
/* columns rows colors chars-per-pixel */
"16 16 75 1 ",
"  c gray6",
". c #272727",
"X c gray16",
"o c gray20",
"O c #353535",
"+ c gray21",
"@ c #373737",
"# c #363F35",
"$ c #3A3A3A",
"% c #464646",
"& c #535353",
"* c gray33",
"= c gray34",
"- c #585858",
"; c gray35",
": c #5A5A5A",
"> c gray36",
", c #58644D",
"< c #626262",
"1 c #646464",
"2 c gray47",
"3 c gray54",
"4 c #9D9D9D",
"5 c gray62",
"6 c #AFAFAF",
"7 c #B2B2B2",
"8 c gray70",
"9 c #B4B4B4",
"0 c gray71",
"q c #B6B6B6",
"w c #B7B7B7",
"e c gray73",
"r c #BBBBBB",
"t c #BCBCBC",
"y c gray74",
"u c gray",
"i c gray75",
"p c #C0C0C0",
"a c #C1C1C1",
"s c gray76",
"d c #C3C3C3",
"f c gray77",
"g c #C5C5C5",
"h c #C6C6C6",
"j c gray78",
"k c #C8C8C8",
"l c #CACACA",
"z c #CBCBCB",
"x c gray80",
"c c #CDCDCD",
"v c #CECECE",
"b c gray81",
"n c #D0D0D0",
"m c gray82",
"M c #D2D2D2",
"N c #D3D3D2",
"B c LightGray",
"V c gray83",
"C c #D5D5D5",
"Z c gray84",
"A c #D7D7D6",
"S c #D7D7D7",
"D c #D8D8D7",
"F c #D8D8D8",
"G c gray85",
"H c #DADADA",
"J c gray86",
"K c gainsboro",
"L c #DDDDDD",
"P c gray87",
"I c #DFDFDF",
"U c gray88",
"Y c #E7E7E7",
"T c gray91",
"R c None",
/* pixels */
"RRRRRRRRRRRRRRRR",
"RR9uHCDCnrpwu9RR",
"RRuubnnHnln9llRR",
"RRsbHUTKnJHsnnRR",
"RRnUTUCKKKHbCHRR",
"R<uCCKHHHHHHns1R",
"R2CnHCHHHCHHbC2R",
"R3sCCCsnnlnCHs3R",
"R4snbbnKKbbnns4R",
"R8blllgggggbbb6R",
"RsbbCsurrusCnbsR",
"RggslCCnnHClglgR",
"Rssur988889usssR",
"R:=%=:&&=>>>:,:R",
"R@@ X@o.X$$$$#@R",
"RRRRRRRRRRRRRRRR"
};
