/* XPM */
static char *_567965237347[] = {
/* columns rows colors chars-per-pixel */
"16 16 127 2 ",
"   c #030505",
".  c #030606",
"X  c #040606",
"o  c #182525",
"O  c #192525",
"+  c #1B2727",
"@  c #1C2828",
"#  c #1F2C2C",
"$  c #202D2D",
"%  c #282A2A",
"&  c #233030",
"*  c #233131",
"=  c #253333",
"-  c #263434",
";  c #2B3E3E",
":  c #2D3F3F",
">  c #3B453C",
",  c #6F6610",
"<  c #5A653A",
"1  c #7C7428",
"2  c #626732",
"3  c #2E4141",
"4  c #354542",
"5  c #324545",
"6  c #354747",
"7  c #3E4B45",
"8  c #364848",
"9  c #374848",
"0  c #374949",
"q  c #3A4C4C",
"w  c #3B4D4D",
"e  c #3C4E4E",
"r  c #3D4F4F",
"t  c #3E4E4E",
"y  c #3E4F4F",
"u  c #3F5151",
"i  c #404E41",
"p  c #4F5A41",
"a  c #405050",
"s  c #415151",
"d  c #435353",
"f  c #445353",
"g  c #445454",
"h  c #465555",
"j  c #465656",
"k  c #475757",
"l  c #4F5E50",
"z  c #495858",
"x  c #4A5858",
"c  c #4A5959",
"v  c #4A5A5A",
"b  c #4B5A5A",
"n  c #4C5A5A",
"m  c #4C5B5B",
"M  c #4D5B5B",
"N  c #4D5C5C",
"B  c #4C5D5D",
"V  c #4E5C5C",
"C  c #4F5C5C",
"Z  c #4E5D5D",
"A  c #4F5D5D",
"S  c #4E5E5E",
"D  c #4F5E5E",
"F  c #505E5E",
"G  c #515E5E",
"H  c #505F5F",
"J  c #515F5F",
"K  c #525F5F",
"L  c #535F5F",
"P  c #6E754F",
"I  c #67735A",
"U  c #526060",
"Y  c #536060",
"T  c #536161",
"R  c #546161",
"E  c #546262",
"W  c #556262",
"Q  c #556363",
"!  c #566363",
"~  c #566464",
"^  c #576464",
"/  c #576565",
"(  c #576666",
")  c #576767",
"_  c #586464",
"`  c #586565",
"'  c #596666",
"]  c #5A6666",
"[  c #5A6767",
"{  c #5E6960",
"}  c #5B6868",
"|  c #5A6969",
" . c #5C6969",
".. c #5D6969",
"X. c #5D6A6A",
"o. c #5E6A6A",
"O. c #5F6A6A",
"+. c gray40",
"@. c #606B66",
"#. c #606C6C",
"$. c #616D6D",
"%. c #626D6D",
"&. c #626E6E",
"*. c #636E6E",
"=. c #646F6F",
"-. c #647070",
";. c #657171",
":. c #667171",
">. c #677272",
",. c #788345",
"<. c #93821B",
"1. c #A0931C",
"2. c #ABA50B",
"3. c #BDAF0F",
"4. c #BDB40B",
"5. c #AEAB19",
"6. c #828C2B",
"7. c #A89D2D",
"8. c #A99F32",
"9. c #AB9D38",
"0. c #BFB122",
"q. c #CFC40C",
"w. c #CDC610",
"e. c #8C8947",
"r. c #939140",
"t. c #938463",
"y. c None",
/* pixels */
"y.y.y.y.y.y.y.y.y.y.y.y.y.y.y.y.",
"y.y.l m L ! ! ! T C z d 6 y.y.y.",
"y.y.,.T ` | X.| | ! L z y 6.y.y.",
"y.y.P ` X.%.%.%.%.| ~ C h 2 y.y.",
"y.y.@.X.%.:.=.:.%.%.` T z > y.y.",
"y.q.I ` C ` :.L :.L ~ z C < 3.y.",
"y.0.{ L z h X.d | f h h m p 8.y.",
"y.9.! C z C L d m z y h z 7 <.y.",
"y.w.T T ` ! ^ =.! ! C B h 7 4.y.",
"y.7.V E ` X.X.X.| ~ T z d 4 1.y.",
"y.r.h C H ^ ^ ^ ! L z d 5 > , y.",
"y.5.q h z V H H C z d 0 3 ; 2.y.",
"y.e.y u k S ) | ) C r 8 5 q 1 y.",
"y.y.# + $ * - - * # + O o = y.y.",
"y.y.% X . X X X .   . . . y.+.t.",
"y.y.y.y.y.y.y.y.y.y.y.y.y.y.y.y."
};
