/* XPM */
static char *_567963987158[] = {
/* columns rows colors chars-per-pixel */
"16 16 100 2 ",
"   c #E8A705",
".  c #ECB307",
"X  c #EBA913",
"o  c #E9A81C",
"O  c #F5BB15",
"+  c #F6BE1C",
"@  c #F5BF24",
"#  c #EFBA3E",
"$  c #F7C31A",
"%  c #F9C21D",
"&  c #F7DF1E",
"*  c #F9C221",
"=  c #F0C22A",
"-  c #F6DC38",
";  c #FBEF2B",
":  c #DCB44A",
">  c #EEBC4A",
",  c #E9D644",
"<  c #E8D947",
"1  c #F4D45C",
"2  c #F5D85D",
"3  c #F6E042",
"4  c #F3ED46",
"5  c #FAEC4B",
"6  c #FBED4E",
"7  c #FBF04F",
"8  c #E2CA7D",
"9  c #F3D27C",
"0  c #F4D57F",
"q  c #EAE362",
"w  c #EAE36A",
"e  c #F8E465",
"r  c #F8E566",
"t  c #F9E868",
"y  c #A4A5A6",
"u  c #A8ABAE",
"i  c #B4B8BC",
"p  c #BCBCBD",
"a  c #F6DC83",
"s  c #CFC5AD",
"d  c #CFC9B1",
"f  c #BDBFC0",
"g  c #BFBFC0",
"h  c #BEC0C2",
"j  c #C1C2C3",
"k  c #C2C3C4",
"l  c #C3C4C4",
"z  c #C4C4C5",
"x  c #C5C5C5",
"c  c #C7C7C8",
"v  c #C8C8C8",
"b  c #C8C8C9",
"n  c #C8C9CA",
"m  c #C9CACA",
"M  c #CACBCB",
"N  c gray80",
"B  c #D0D0D1",
"V  c #D1D2D2",
"C  c #D2D3D2",
"Z  c #D2D3D3",
"A  c #D3D5D5",
"S  c #D5D5D5",
"D  c #D7D8D8",
"F  c #D8D8D8",
"G  c #D8D9D8",
"H  c gray85",
"J  c #D8D9DA",
"K  c #D8D9DB",
"L  c #D9DADA",
"P  c #D9DADB",
"I  c #DADBDA",
"U  c #DADBDB",
"Y  c #DCDBDB",
"T  c #DEDEDB",
"R  c #DBDCDC",
"E  c gainsboro",
"W  c gray87",
"Q  c #DFDFDF",
"!  c #E0D9C6",
"~  c #E3E3D8",
"^  c #E1E1DC",
"/  c gray88",
"(  c #E0E0E1",
")  c #E1E2E1",
"_  c #E2E2E1",
"`  c #E3E4E3",
"'  c #E4E4E3",
"]  c #E3E4E4",
"[  c #E4E4E4",
"{  c #E6E6E5",
"}  c #E6E6E6",
"|  c #E7E7E6",
" . c #E7E7E7",
".. c #E8E8E6",
"X. c #E8E8E7",
"o. c #E8E9E8",
"O. c #E9E9E8",
"+. c #EBEBEA",
"@. c #ECEDED",
"#. c None",
/* pixels */
"#.#.#.#.#.#.#.#.#.#.#.#.#.#.#.#.",
"#.#.#.#.#.#.#.#.#.#.#.#.#.#.#.#.",
"#.#.#.#.#.#.#.#.+ @ $ #.#.#.#.#.",
"#.#.#.#.#.#.% > 0 a 9 # #.#.#.#.",
"#.#.#.#.#.#.o 2 e t e 1 X #.#.#.",
"#.#.#.#.s ! 8 3 6 7 5 -   * #.#.",
"#.p b (  .[ ^ < q 4 ; & . O #.#.",
"N J J P  .O.Y T ] ~ w , : = #.#.",
"#.(  .] ....( Q ( +.[ W B d #.#.",
"#.M K ] @.R Z R ( [ W T G S x #.",
"#.#.z ( [ _ Z J R V V G J A b #.",
"#.#.#.y d v b l v j f k j h i u ",
"#.#.#.#.#.#.#.#.#.#.#.#.#.#.#.#.",
"#.#.#.#.#.#.#.#.#.#.#.#.#.#.#.#.",
"#.#.#.#.#.#.#.#.#.#.#.#.#.#.#.#.",
"#.#.#.#.#.#.#.#.#.#.#.#.#.#.#.#."
};
