/* XPM */
static char *_567962429687[] = {
/* columns rows colors chars-per-pixel */
"16 16 73 1 ",
"  c #E7A303",
". c #E8A107",
"X c #E8A504",
"o c #EBAE05",
"O c #E9A508",
"+ c #EBA60B",
"@ c #E8A20E",
"# c #EBA90A",
"$ c #ECAB0A",
"% c #ECA80D",
"& c #EDB607",
"* c #EDB70B",
"= c #ECB30D",
"- c #F0B10D",
"; c #F1B30E",
": c #F0B30F",
"> c #E9A910",
", c #EAAE12",
"< c #E8A51F",
"1 c #F1B211",
"2 c #F3B814",
"3 c #F1B118",
"4 c #F6BC19",
"5 c #F3BC1C",
"6 c #F7BF1E",
"7 c #F3BD28",
"8 c #ECB33C",
"9 c #F1BD3F",
"0 c #EFC00B",
"q c #EFC010",
"w c #F7C019",
"e c #F9C719",
"r c #FAC51D",
"t c #F9C819",
"y c #F4D31A",
"u c #F6DB1C",
"i c #F5D91E",
"p c #F6DC1C",
"a c #F7E01F",
"s c #F7DF20",
"d c #F1C737",
"f c #F1C938",
"g c #F5D93D",
"h c #FAEB2E",
"j c #FBED2E",
"k c #FBED30",
"l c #FBEF30",
"z c #FCF336",
"x c #F1BF42",
"c c #EDBB51",
"v c #F6DD44",
"b c #F3D15A",
"n c #F4D55C",
"m c #F9E84E",
"M c #FAEA4F",
"N c #FAED4F",
"B c #FDF742",
"V c #FDF843",
"C c #F8E252",
"Z c #F8E555",
"A c #FBEE52",
"S c #FBEF52",
"D c #F4D47B",
"F c #F5D77D",
"G c #F6DC7C",
"H c #F6DD7D",
"J c #F7E164",
"K c #F8E265",
"L c #F9E768",
"P c #FDF776",
"I c #FDF696",
"U c #FDF698",
"Y c None",
/* pixels */
"YYYYYYYYYYYYYYYY",
"YYYYYYYYYYYYYYYY",
"YYYYYYYYYYYYYYYY",
"YYYYYY59x7YYYYYY",
"YYYYr8DGGDc4YYYY",
"YYYY@bJLLJn<YYYY",
"YYY4XgmASNg=-YYY",
"YYY-&uhzzjh0+YYY",
"YYY-&ukVVls*$YYY",
"YYYt yAPPSuo4YYY",
"YYYYO*CUIZq.YYYY",
"YYYYY$>ff,OYYYYY",
"YYYYYYt31wYYYYYY",
"YYYYYYYYYYYYYYYY",
"YYYYYYYYYYYYYYYY",
"YYYYYYYYYYYYYYYY"
};
